<svg width="15" height="15" viewBox="0 0 15 15" fill="none" xmlns="http://www.w3.org/2000/svg">
<path d="M6.375 10.625H7.79167V6.375H6.375V10.625ZM7.08333 0C3.16979 0 0 3.16979 0 7.08333C0 10.9969 3.16979 14.1667 7.08333 14.1667C10.9969 14.1667 14.1667 10.9969 14.1667 7.08333C14.1667 3.16979 10.9969 0 7.08333 0ZM7.08333 12.75C3.95958 12.75 1.41667 10.2071 1.41667 7.08333C1.41667 3.95958 3.95958 1.41667 7.08333 1.41667C10.2071 1.41667 12.75 3.95958 12.75 7.08333C12.75 10.2071 10.2071 12.75 7.08333 12.75ZM6.375 4.95833H7.79167V3.54167H6.375V4.95833Z" fill="white"/>
</svg>
